HIERARCHY
ROOT hip
{
  OFFSET 0 0 0
  CHANNELS 6 Xposition Yposition Zposition Zrotation Yrotation Xrotation
  JOINT abdomen
  {
    OFFSET 0 20.6881 -0.73152
    CHANNELS 3 Zrotation Xrotation Yrotation
    JOINT chest
    {
      OFFSET 0 11.7043 -0.48768
      CHANNELS 3 Zrotation Xrotation Yrotation
      JOINT neck
      {
        OFFSET 0 22.1894 -2.19456
        CHANNELS 3 Zrotation Xrotation Yrotation
        JOINT head
        {
          OFFSET -0.24384 7.07133 1.2192
          CHANNELS 3 Zrotation Xrotation Yrotation
          JOINT leftEye
          {
            OFFSET 4.14528 8.04674 8.04672
            CHANNELS 3 Zrotation Xrotation Yrotation
            End Site
            {
              OFFSET 1 0 0
            }
          }
          JOINT rightEye
          {
            OFFSET -3.6576 8.04674 8.04672
            CHANNELS 3 Zrotation Xrotation Yrotation
            End Site
            {
              OFFSET 1 0 0
            }
          }
        }
      }
      JOINT rCollar
      {
        OFFSET -2.68224 19.2634 -4.8768
        CHANNELS 3 Zrotation Xrotation Yrotation
        JOINT rShldr
        {
          OFFSET -8.77824 -1.95073 1.46304
          CHANNELS 3 Zrotation Xrotation Yrotation
          JOINT rForeArm
          {
            OFFSET -28.1742 -1.7115 0.48768
            CHANNELS 3 Zrotation Xrotation Yrotation
            JOINT rHand
            {
              OFFSET -22.5879 0.773209 7.07136
              CHANNELS 3 Zrotation Xrotation Yrotation
              JOINT rThumb1
              {
                OFFSET -1.2192 -0.487915 3.41376
                CHANNELS 3 Zrotation Xrotation Yrotation
                JOINT rThumb2
                {
                  OFFSET -3.37035 -0.52449 3.41376
                  CHANNELS 3 Zrotation Xrotation Yrotation
                  End Site
                  {
                    OFFSET -1.78271 -1.18214 1.43049
                  }
                }
              }
              JOINT rIndex1
              {
                OFFSET -7.75947 0.938293 5.60832
                CHANNELS 3 Zrotation Xrotation Yrotation
                JOINT rIndex2
                {
                  OFFSET -2.54057 -0.884171 1.56538
                  CHANNELS 3 Zrotation Xrotation Yrotation
                  End Site
                  {
                    OFFSET -1.62519 -0.234802 1.16502
                  }
                }
              }
              JOINT rMid1
              {
                OFFSET -8.24714 1.18213 3.41376
                CHANNELS 3 Zrotation Xrotation Yrotation
                JOINT rMid2
                {
                  OFFSET -3.10165 -0.590103 1.0647
                  CHANNELS 3 Zrotation Xrotation Yrotation
                  End Site
                  {
                    OFFSET -2.48547 -0.328903 0.83742
                  }
                }
              }
              JOINT rRing1
              {
                OFFSET -8.82822 0.546677 1.51678
                CHANNELS 3 Zrotation Xrotation Yrotation
                JOINT rRing2
                {
                  OFFSET -2.60934 -0.819778 -0.0198488
                  CHANNELS 3 Zrotation Xrotation Yrotation
                  End Site
                  {
                    OFFSET -2.33842 -0.294052 0.168128
                  }
                }
              }
              JOINT rPinky1
              {
                OFFSET -8.27202 -0.0477905 -0.4584
                CHANNELS 3 Zrotation Xrotation Yrotation
                JOINT rPinky2
                {
                  OFFSET -1.82734 -0.647385 -0.700984
                  CHANNELS 3 Zrotation Xrotation Yrotation
                  End Site
                  {
                    OFFSET -1.69225 -0.51767 -0.607171
                  }
                }
              }
            }
          }
        }
      }
      JOINT lCollar
      {
        OFFSET 2.68224 19.2634 -4.8768
        CHANNELS 3 Zrotation Xrotation Yrotation
        JOINT lShldr
        {
          OFFSET 8.77824 -1.95073 1.46304
          CHANNELS 3 Zrotation Xrotation Yrotation
          JOINT lForeArm
          {
            OFFSET 28.1742 -1.7115 0.48768
            CHANNELS 3 Zrotation Xrotation Yrotation
            JOINT lHand
            {
              OFFSET 22.5879 0.773209 7.07136
              CHANNELS 3 Zrotation Xrotation Yrotation
              JOINT lThumb1
              {
                OFFSET 1.2192 -0.487915 3.41376
                CHANNELS 3 Zrotation Xrotation Yrotation
                JOINT lThumb2
                {
                  OFFSET 3.37035 -0.52449 3.41376
                  CHANNELS 3 Zrotation Xrotation Yrotation
                  End Site
                  {
                    OFFSET 1.78271 -1.18214 1.43049
                  }
                }
              }
              JOINT lIndex1
              {
                OFFSET 7.75947 0.938293 5.60832
                CHANNELS 3 Zrotation Xrotation Yrotation
                JOINT lIndex2
                {
                  OFFSET 2.54057 -0.884171 1.56538
                  CHANNELS 3 Zrotation Xrotation Yrotation
                  End Site
                  {
                    OFFSET 1.62519 -0.234802 1.16502
                  }
                }
              }
              JOINT lMid1
              {
                OFFSET 8.24714 1.18213 3.41376
                CHANNELS 3 Zrotation Xrotation Yrotation
                JOINT lMid2
                {
                  OFFSET 3.10165 -0.590103 1.0647
                  CHANNELS 3 Zrotation Xrotation Yrotation
                  End Site
                  {
                    OFFSET 2.48547 -0.328903 0.83742
                  }
                }
              }
              JOINT lRing1
              {
                OFFSET 8.82822 0.546677 1.51678
                CHANNELS 3 Zrotation Xrotation Yrotation
                JOINT lRing2
                {
                  OFFSET 2.60934 -0.819778 -0.0198488
                  CHANNELS 3 Zrotation Xrotation Yrotation
                  End Site
                  {
                    OFFSET 2.33842 -0.294052 0.168128
                  }
                }
              }
              JOINT lPinky1
              {
                OFFSET 8.27202 -0.0477905 -0.4584
                CHANNELS 3 Zrotation Xrotation Yrotation
                JOINT lPinky2
                {
                  OFFSET 1.82734 -0.647385 -0.700984
                  CHANNELS 3 Zrotation Xrotation Yrotation
                  End Site
                  {
                    OFFSET 1.69225 -0.51767 -0.607171
                  }
                }
              }
            }
          }
        }
      }
    }
  }
  JOINT rButtock
  {
    OFFSET -8.77824 4.35084 1.2192
    CHANNELS 3 Zrotation Xrotation Yrotation
    JOINT rThigh
    {
      OFFSET 0 -1.70687 -2.19456
      CHANNELS 3 Zrotation Xrotation Yrotation
      JOINT rShin
      {
        OFFSET 0 -36.8199 0.73152
        CHANNELS 3 Zrotation Xrotation Yrotation
        JOINT rFoot
        {
          OFFSET 0.73152 -45.1104 -5.12064
          CHANNELS 3 Zrotation Xrotation Yrotation
          End Site
          {
            OFFSET -1.1221 -3.69964 12.103
          }
        }
      }
    }
  }
  JOINT lButtock
  {
    OFFSET 8.77824 4.35084 1.2192
    CHANNELS 3 Zrotation Xrotation Yrotation
    JOINT lThigh
    {
      OFFSET 0 -1.70687 -2.19456
      CHANNELS 3 Zrotation Xrotation Yrotation
      JOINT lShin
      {
        OFFSET 0 -36.8199 0.73152
        CHANNELS 3 Zrotation Xrotation Yrotation
        JOINT lFoot
        {
          OFFSET -0.73152 -45.1104 -5.12064
          CHANNELS 3 Zrotation Xrotation Yrotation
          End Site
          {
            OFFSET 1.1221 -3.69964 12.103
          }
        }
      }
    }
  }
}
MOTION
Frames:	5
Frame Time:	0.03333
-10.090399999999999 69.0327 -17.8013 179.288298 8.943396 178.219237 -9.65428 0.607877 86.431296 14.398436 -11.131109 -95.584366 -11.290387 14.418693 -110.603319 46.040308 10.787649 93.356821 4.862663 2.803954 59.918132 -13.141514 -5.474741 45.085391 -168.775759 -34.534485 140.147827 -104.775996 -65.279912 -79.735749 -0.755377 78.345336 -125.419362 136.002394 -44.690139 129.311227 119.590434 -46.871339 88.73459 173.03942 -9.956727 164.103718 23.240996 -0.351837 -37.611813 98.365506 -58.645221 89.942415 146.111444 -69.090235 150.946136 -73.161191 57.771387 14.50225 -107.971175 -6.613292 -131.06764 79.172758 16.663159 -25.242389 -83.206966 21.36909 106.127093 118.118558 -71.090753 32.543895 -40.178367 3.756835 12.073172 -44.801008 -13.086214 -21.405305 -175.254774 -14.329117 -28.611204 176.305979 10.090373 -149.9653 -8.524757 -29.298882 7.602788 -34.247028 1.253615 -14.89051 155.669789 -17.517627 -103.390536 0.180703 10.950058 -51.98173 75.394031 -85.211137 132.364858 163.51491 -16.220784 -77.174592 166.495617 11.169575 141.088747 64.152201 -34.394434 114.121004 125.365881 28.926351 97.558091 -39.818193 -8.910761 -5.702228 42.87363 26.077143 98.163203 -159.148951 14.72708 -5.113132 142.484638 51.878611 -31.36147 0.423761 71.939975 -93.38079 -54.984391 -4.81886 -56.288725 59.479742 28.358807 53.442885 10.739263 42.358052 -114.884482 171.240296 65.096711 -110.167708
-10.710799999999999 69.6575 -18.661 179.157607 7.902609 177.562137 -3.269138 1.573842 -86.170035 -12.500014 5.893427 73.08112 3.395317 2.843985 63.735584 -39.375499 -0.203475 -73.808073 8.639214 5.28967 62.896572 -32.3467 -10.009791 33.604271 142.746612 -67.849929 109.625509 91.589645 54.109985 -89.073426 146.129787 -13.287839 26.833518 158.983296 -8.086248 148.624537 -20.813176 -20.373549 -5.924708 4.541567 -39.80149 -87.383282 -115.407657 -62.155804 -173.37061 30.680885 5.405805 5.853601 154.876184 -1.972959 150.601112 94.858218 -51.873328 106.824288 14.447005 1.16846 -46.316349 60.181033 -32.154601 94.633397 -95.616963 26.591203 107.692269 101.716924 -62.953817 24.219433 77.780605 81.508839 -120.077267 -174.311597 0.627215 -144.506944 113.871592 -82.608987 -93.671945 -176.796921 -14.328721 -148.565822 -175.977059 5.640462 -94.964417 93.12078 47.432932 -29.93175 19.132942 0.743675 -18.676626 44.568757 -61.295574 107.318947 27.689396 71.807975 -41.705475 25.7827 11.476199 52.797883 -68.704679 66.480803 66.49518 50.059915 -13.194605 32.37516 -55.661227 7.02213 18.260391 -32.129404 50.040481 59.989815 -55.317738 41.331001 -108.923831 104.124403 -15.833421 47.280805 136.674547 65.167986 -109.741965 -67.405797 9.234346 5.196711 -60.37297 1.897299 -60.923459 69.360756 32.926425 -53.835273 -47.586161 -3.307207 -34.456161 -174.725853 38.217473 -144.211744
-11.4953 69.6046 -20.0837 179.758945 27.693141 177.593469 0.13225 6.783568 21.022422 1.14027 7.056566 -34.415983 -15.059281 11.213944 -15.356773 16.968545 -28.002361 -3.841967 43.097061 27.225027 63.03548 -32.777299 9.936514 -32.933296 -166.384945 -8.549565 145.873258 -44.59227 -0.129451 -0.958638 4.460538 -12.791818 -154.210144 154.509004 -28.839896 124.662878 -24.651009 6.714093 -15.221255 -137.577741 -62.797934 88.693896 -179.38523 -29.208933 105.808705 -118.37333 -5.457471 -20.809657 -13.292159 -23.881883 -9.453154 -21.828653 58.269589 25.627925 75.510111 80.577951 -45.405752 112.181437 21.721376 -144.999789 -48.469496 -22.034896 49.938265 142.438335 -16.238299 -49.487763 134.396325 -23.622398 -173.557064 -143.330895 73.199251 153.406741 -169.407132 -25.507815 -22.292752 175.329965 13.061312 -150.593405 76.907417 43.151522 -25.61684 8.0901 -22.456587 -24.963729 159.092478 16.281225 -105.07642 -18.41989 5.440828 -14.039604 -36.663524 58.022402 41.941434 -171.305112 -62.255085 145.786014 91.405169 -37.515134 94.772572 -67.117329 -24.766532 -30.017099 -43.987938 9.984116 -10.338346 -41.690625 28.233627 86.863802 -14.867666 -25.592893 -0.0 -61.296462 -47.258808 -54.136379 -179.950433 74.357307 -167.015302 -84.207647 -6.710313 9.024533 -4.973443 -8.437924 5.622087 25.401725 -24.874548 180.0 7.696876 -66.483354 -51.594734 -103.165765 -51.193977 165.58576
-11.5638 67.2431 -21.3176 -177.548912 27.152796 172.687171 2.370135 14.840742 109.017434 4.423918 1.563603 -122.96941 -10.386131 36.043499 -165.406565 -13.994056 62.342747 159.45286 -9.267827 1.483257 -18.147421 25.001532 4.429088 19.787955 -179.25064 -28.924724 155.928821 -41.888682 -4.757114 -20.234545 96.666095 -68.642883 -80.057579 -152.558144 66.679577 111.288394 -60.500999 75.811191 20.382069 -109.339973 26.215197 28.864983 18.563134 -5.133872 35.34496 176.185355 -31.830045 -137.846379 115.052004 -70.587575 97.339565 2.575215 -45.197337 19.469491 128.194766 69.377777 -133.860439 163.672564 -1.012526 -173.374382 51.439521 -54.868025 97.103268 115.547434 19.790084 162.498537 -4.176902 35.879935 -12.32627 147.585054 -8.278599 -153.815813 1.000182 -66.659505 161.707439 177.191318 27.709137 -145.02365 103.551213 61.106196 -60.745615 -33.129214 -71.152492 -19.624001 100.866053 35.515504 -68.553508 -51.6242 -13.985588 7.327691 89.338581 -70.642738 109.15271 -25.402724 43.217989 -45.418511 55.994084 -30.254965 34.087828 -33.80662 11.201565 -7.19169 -10.8491 -43.761062 -0.784839 72.134374 -35.474419 16.621177 -16.271775 -8.637221 19.247125 -72.484178 -30.189792 -80.982044 -157.635967 80.241589 -119.583885 -83.343025 61.2001 3.10793 59.363759 12.417278 44.780713 -41.697871 -7.102766 -103.178381 -71.138024 9.036486 -65.063726 -91.638835 43.943356 -178.903978
-11.0195 65.1615 -22.8658 -175.292936 25.064976 170.746141 4.807767 22.651676 47.182618 -3.782698 2.369472 -60.347242 -17.284891 19.797476 -52.962753 63.020646 -1.315359 33.633056 -43.712869 2.603478 -6.484798 26.404017 0.672857 2.867721 -3.392719 -62.001273 -6.823824 -68.604793 -51.829127 -108.845852 -140.220915 77.301706 -86.48892 33.166605 -64.875447 -0.365355 -158.158249 82.147814 129.818995 -47.186984 33.556479 -64.062458 -103.516431 -22.147435 104.8309 129.343862 -8.212592 -44.904599 -141.437009 18.805886 89.399051 -45.505113 37.32142 106.600008 153.793363 -8.090555 177.420132 -71.339735 34.059493 100.841633 -95.105475 16.54996 133.404706 71.122644 -45.369569 -71.865428 -23.225881 -42.156813 -1.001643 -24.339645 13.562851 5.117006 2.875062 -16.053701 -128.246816 -27.420831 -49.754369 -7.206222 -83.047082 -75.599345 -37.323103 -5.562889 -7.824202 -3.082336 -113.926429 -72.847749 -84.506166 7.850167 -5.170545 14.595155 38.198513 56.529023 -14.967385 -9.056946 -67.849055 -38.244919 55.920674 8.083567 -27.641354 95.608089 -46.519222 167.410338 -111.450332 -76.505343 -98.491911 101.103758 73.425234 -83.193865 140.40002 87.177592 0.0 149.005423 25.437202 -43.913679 -102.253819 56.074905 -43.221413 -108.34554 45.500157 -167.804152 -26.348614 -2.552431 -49.962852 62.729957 25.499533 -128.433208 -44.496557 -56.289219 -161.036575 -121.70192 31.14676 28.063313
